<svg width="20" height="20" viewBox="0 0 20 20" fill="none" xmlns="http://www.w3.org/2000/svg">
<path d="M12.1587 6.66699L10.0003 8.82533L7.84199 6.66699L6.66699 7.84199L8.82533 10.0003L6.66699 12.1587L7.84199 13.3337L10.0003 11.1753L12.1587 13.3337L13.3337 12.1587L11.1753 10.0003L13.3337 7.84199L12.1587 6.66699ZM10.0003 1.66699C5.39199 1.66699 1.66699 5.39199 1.66699 10.0003C1.66699 14.6087 5.39199 18.3337 10.0003 18.3337C14.6087 18.3337 18.3337 14.6087 18.3337 10.0003C18.3337 5.39199 14.6087 1.66699 10.0003 1.66699ZM10.0003 16.667C6.32533 16.667 3.33366 13.6753 3.33366 10.0003C3.33366 6.32533 6.32533 3.33366 10.0003 3.33366C13.6753 3.33366 16.667 6.32533 16.667 10.0003C16.667 13.6753 13.6753 16.667 10.0003 16.667Z" fill="#E5E5E5"/>
</svg>
