<svg width="17" height="16" viewBox="0 0 17 16" fill="none" xmlns="http://www.w3.org/2000/svg">
<path d="M10.3349 5.33301L8.50033 7.05967L6.66574 5.33301L5.66699 6.27301L7.50158 7.99967L5.66699 9.72634L6.66574 10.6663L8.50033 8.93967L10.3349 10.6663L11.3337 9.72634L9.49908 7.99967L11.3337 6.27301L10.3349 5.33301ZM8.50033 1.33301C4.58324 1.33301 1.41699 4.31301 1.41699 7.99967C1.41699 11.6863 4.58324 14.6663 8.50033 14.6663C12.4174 14.6663 15.5837 11.6863 15.5837 7.99967C15.5837 4.31301 12.4174 1.33301 8.50033 1.33301ZM8.50033 13.333C5.37658 13.333 2.83366 10.9397 2.83366 7.99967C2.83366 5.05967 5.37658 2.66634 8.50033 2.66634C11.6241 2.66634 14.167 5.05967 14.167 7.99967C14.167 10.9397 11.6241 13.333 8.50033 13.333Z" fill="#E5E5E5"/>
</svg>
