<svg width="15" height="15" viewBox="0 0 15 15" fill="none" xmlns="http://www.w3.org/2000/svg">
<path d="M9.4425 4.5L7.5 6.4425L5.5575 4.5L4.5 5.5575L6.4425 7.5L4.5 9.4425L5.5575 10.5L7.5 8.5575L9.4425 10.5L10.5 9.4425L8.5575 7.5L10.5 5.5575L9.4425 4.5ZM7.5 0C3.3525 0 0 3.3525 0 7.5C0 11.6475 3.3525 15 7.5 15C11.6475 15 15 11.6475 15 7.5C15 3.3525 11.6475 0 7.5 0ZM7.5 13.5C4.1925 13.5 1.5 10.8075 1.5 7.5C1.5 4.1925 4.1925 1.5 7.5 1.5C10.8075 1.5 13.5 4.1925 13.5 7.5C13.5 10.8075 10.8075 13.5 7.5 13.5Z" fill="#386BEE"/>
</svg>
